<?xml version="1.0" encoding="iso-8859-1"?>
<!-- Generator: Adobe Illustrator 19.0.0, SVG Export Plug-In . SVG Version: 6.00 Build 0)  -->
<svg version="1.1" id="Layer_1" xmlns="http://www.w3.org/2000/svg" xmlns:xlink="http://www.w3.org/1999/xlink" x="0px" y="0px"
	 viewBox="0 0 511.999 511.999" style="enable-background:new 0 0 511.999 511.999;" xml:space="preserve">
<path style="fill:#FF5E5B;" d="M393.153,506.399H118.846c-9.187,0-17.004-6.695-18.417-15.773L69.608,292.506
	c-0.836-5.379,0.719-10.855,4.261-14.989c3.541-4.135,8.713-6.515,14.156-6.515h335.949c5.443,0,10.615,2.379,14.156,6.515
	c3.541,4.134,5.097,9.61,4.261,14.989l-30.821,198.121C410.157,499.705,402.34,506.399,393.153,506.399z"/>
<g>
	<path style="fill:#ED3E3C;" d="M438.128,277.517c-3.541-4.135-8.713-6.515-14.156-6.515H255.999v235.397h137.153
		c9.187,0,17.004-6.695,18.417-15.773l30.821-198.121C443.226,287.127,441.671,281.651,438.128,277.517z"/>
	<path style="fill:#ED3E3C;" d="M295.175,506.399h-78.353c-9.535,0-17.533-7.197-18.535-16.68l-20.924-198.121
		c-0.555-5.255,1.147-10.498,4.681-14.426c3.535-3.928,8.57-6.17,13.854-6.17h120.201c5.283,0,10.319,2.243,13.854,6.17
		c3.534,3.928,5.236,9.171,4.681,14.426L313.71,489.72C312.708,499.201,304.71,506.399,295.175,506.399z"/>
</g>
<path style="fill:#D62F2D;" d="M329.953,277.173c-3.535-3.928-8.57-6.17-13.854-6.17h-60.101v235.397h39.177
	c9.535,0,17.533-7.197,18.535-16.68l20.924-198.121C335.189,286.344,333.488,281.101,329.953,277.173z"/>
<path style="fill:#FFDA79;" d="M423.974,308.278H88.025c-24.126,0-46.634-9.572-63.375-26.953
	c-53.652-55.702-13.803-148.322,62.588-149.014c13.507-0.119,25.39-9.508,29.566-23.361C134.68,49.658,189.821,5.599,255.999,5.599
	c66.059,0,121.282,43.943,139.193,103.352c4.177,13.854,16.06,23.243,29.568,23.362c76.447,0.693,116.213,93.338,62.587,149.014
	C470.608,298.706,448.099,308.278,423.974,308.278z"/>
<path style="fill:#FFC72D;" d="M424.761,132.312c-13.509-0.119-25.391-9.508-29.568-23.362
	C377.314,49.654,322.171,5.599,255.999,5.599v302.679h167.974c24.127,0,46.634-9.572,63.375-26.953
	C541.03,225.591,501.092,133.005,424.761,132.312z"/>
<g>
	<circle style="fill:#FF5E5B;" cx="255.996" cy="203.338" r="19.532"/>
	<circle style="fill:#FF5E5B;" cx="162.012" cy="203.338" r="19.532"/>
</g>
<g>
	<path style="fill:#ED3E3C;" d="M255.999,183.809v39.066c10.788,0,19.532-8.745,19.532-19.534
		C275.532,192.554,266.786,183.809,255.999,183.809z"/>
	<circle style="fill:#ED3E3C;" cx="349.993" cy="203.338" r="19.532"/>
</g>
<g>
</g>
<g>
</g>
<g>
</g>
<g>
</g>
<g>
</g>
<g>
</g>
<g>
</g>
<g>
</g>
<g>
</g>
<g>
</g>
<g>
</g>
<g>
</g>
<g>
</g>
<g>
</g>
<g>
</g>
</svg>
